<?xml version="1.0" encoding="UTF-8" standalone="no"?>
<svg
   xmlns:dc="http://purl.org/dc/elements/1.1/"
   xmlns:cc="http://creativecommons.org/ns#"
   xmlns:rdf="http://www.w3.org/1999/02/22-rdf-syntax-ns#"
   xmlns:svg="http://www.w3.org/2000/svg"
   xmlns="http://www.w3.org/2000/svg"
   xmlns:sodipodi="http://sodipodi.sourceforge.net/DTD/sodipodi-0.dtd"
   xmlns:inkscape="http://www.inkscape.org/namespaces/inkscape"
   width="135.46666mm"
   height="135.46666mm"
   viewBox="0 0 135.46666 135.46666"
   version="1.1"
   id="svg8"
   inkscape:version="1.0.1 (3bc2e813f5, 2020-09-07)"
   sodipodi:docname="logo_inv.svg">
  <defs
     id="defs2" />
  <sodipodi:namedview
     id="base"
     pagecolor="#ffffff"
     bordercolor="#666666"
     borderopacity="1.0"
     inkscape:pageopacity="0.0"
     inkscape:pageshadow="2"
     inkscape:zoom="0.98994949"
     inkscape:cx="392.85089"
     inkscape:cy="313.13096"
     inkscape:document-units="mm"
     inkscape:current-layer="layer1"
     inkscape:document-rotation="0"
     showgrid="false"
     fit-margin-top="0"
     fit-margin-left="0"
     fit-margin-right="0"
     fit-margin-bottom="0"
     inkscape:window-width="2560"
     inkscape:window-height="1363"
     inkscape:window-x="0"
     inkscape:window-y="0"
     inkscape:window-maximized="1" />
  <metadata
     id="metadata5">
    <rdf:RDF>
      <cc:Work
         rdf:about="">
        <dc:format>image/svg+xml</dc:format>
        <dc:type
           rdf:resource="http://purl.org/dc/dcmitype/StillImage" />
        <dc:title></dc:title>
      </cc:Work>
    </rdf:RDF>
  </metadata>
  <g
     inkscape:label="Layer 1"
     inkscape:groupmode="layer"
     id="layer1"
     transform="translate(-37.26667,-80.76667)">
    <path
       id="rect1043"
       style="fill:#f0f0f0;fill-opacity:1;stroke-width:1.00157;stroke-linejoin:round;paint-order:stroke fill markers"
       d="M 307.07812 127.99609 L 307.07617 127.99805 C 306.8796 128.7549 306.53927 129.42174 306.32422 130.16797 L 306.35352 130.17578 C 306.35352 130.17578 306.50832 130.1542 306.52344 130.15234 L 307.07812 127.99609 z M 305.9043 132.54492 C 305.73017 132.63185 305.5699 132.73956 305.39453 132.82422 C 305.26425 133.22549 305.11615 133.61588 304.98047 134.01367 L 305.58008 133.80664 L 305.9043 132.54492 z M 401.02344 165.03711 C 399.1201 165.02959 397.22039 165.34658 396.01758 165.99023 C 393.86676 167.14129 344.19633 230.79672 341.38867 236 C 339.59347 239.32704 339.48593 243.14494 339.22461 313.25 L 338.95117 387 L 256.01172 387 L 173.07422 387 L 172.78711 313.75 C 172.52859 247.7167 172.33469 240.15106 170.82617 236.96484 C 168.29219 231.61258 118.15116 167.69638 115.28125 166.16016 C 107.91586 162.21747 98.086392 171.68721 101.98438 178.9707 C 102.63641 180.18903 114.26824 195.43237 127.83398 212.84375 L 152.5 244.5 L 153 318.5 C 153.54951 399.82727 153.16235 395.02807 159.66016 401.19531 C 165.96709 407.1814 161.59413 406.92067 256 406.93945 C 338.10865 406.95457 342.70305 406.86156 346.5 405.10352 C 348.69999 404.08493 351.71395 401.9588 353.19727 400.37695 C 359.19636 393.97935 359 396.77536 359 317.5918 L 359 245.11914 L 364.18945 238.31055 C 367.04337 234.56519 378.5196 219.73185 389.69336 205.34961 C 401.62038 189.99785 410.25377 177.9772 410.60156 176.23828 C 411.28864 172.8028 408.96557 167.58718 406.05469 166.0293 C 404.83403 165.37602 402.92678 165.04463 401.02344 165.03711 z M 204.74805 168.18164 C 199.69337 170.38473 194.15473 171.47114 188.73047 170.87109 C 187.29939 170.71278 185.84661 170.44463 184.39648 170.08008 C 182.61539 192.3956 192.68369 215.83335 210.52344 230.29492 C 217.91007 236.28279 230.7637 242.64257 239.16797 244.4668 C 247.57296 246.29117 261.86931 246.31105 270.37109 244.50977 C 284.41608 241.53414 300.47371 231.59899 309.59375 220.24219 C 314.71161 213.86915 322.13868 199.07088 323.88867 191.75977 C 325.44137 185.27304 326.03797 178.75202 325.78125 172.34766 C 319.01207 173.13739 312.10926 172.20585 305.62305 169.0625 C 305.56362 169.0337 305.49155 168.99031 305.42969 168.95898 C 305.94927 173.40759 305.89146 178.00753 305.16602 182.67383 C 301.22801 208.00392 280.04933 226.11516 254.56836 225.94531 C 249.69961 225.9113 244.31884 225.18558 241 224.11133 C 226.22696 219.32962 215.72384 210.50513 209.56445 197.69922 C 204.8629 187.9243 203.47298 177.74562 204.74805 168.18164 z "
       transform="matrix(0.26458333,0,0,0.26458333,37.26667,80.76667)" />
    <path
       style="fill:#f0f0f0;fill-opacity:1;stroke-width:0.048387"
       d="m 103.80542,122.46103 c -2.40919,-0.301 -4.43177,-1.98622 -5.16336,-4.30212 -0.24898,-0.78814 -0.27459,-1.08607 -0.2479,-2.88289 0.032,-2.15282 0.1206,-2.80632 0.56413,-4.16003 1.13236,-3.45603 4.0235,-6.15705 7.56092,-7.06368 1.23442,-0.31637 2.58781,-0.43044 3.50359,-0.29528 2.91063,0.42959 5.04299,2.87782 5.04299,5.78998 0,0.33388 0.0151,0.43199 0.0664,0.43199 0.3089,0 1.6205,-0.58266 2.22783,-0.98966 0.79363,-0.53186 1.69363,-1.4431 1.74242,-1.76418 0.38962,-2.56355 0.97768,-5.78536 1.48011,-8.10906 0.10358,-0.47903 0.21282,-1.01112 0.24277,-1.18244 0.0728,-0.41638 0.22808,-0.70716 0.52698,-0.98674 0.31678,-0.29631 0.44765,-0.34828 1.10926,-0.44057 0.98108,-0.13683 2.35173,-0.0685 3.02881,0.151 0.34741,0.11263 0.67494,0.45528 0.77972,0.81567 0.0907,0.31194 0.0805,0.5246 -0.078,1.61888 -0.34477,2.38149 -0.90822,4.3513 -1.99999,6.99194 -0.41343,0.99992 -1.12031,4.29678 -1.40578,6.55645 -0.26795,2.12098 -0.37257,4.59107 -0.22593,5.33349 0.0916,0.4637 0.28003,0.73931 0.60817,0.88953 0.37325,0.17088 1.03595,0.24575 1.51733,0.17142 1.47956,-0.22846 3.11604,-1.94301 4.20972,-4.41057 0.45423,-1.02483 0.59011,-1.4628 0.71314,-2.29839 0.0627,-0.42581 0.22403,-1.39326 0.35855,-2.1499 0.22706,-1.27726 0.3888,-2.34648 0.3888,-2.57032 0,-0.0911 -0.0436,-0.0942 -1.28381,-0.0942 -1.80719,0 -1.74615,0.0371 -1.84852,-1.12481 -0.0969,-1.0991 0.0113,-1.84419 0.30798,-2.12311 l 0.12234,-0.11498 1.54411,-0.014 1.54413,-0.014 0.0228,-0.10694 c 0.0126,-0.0589 0.0682,-0.35399 0.12375,-0.65593 0.0556,-0.30194 0.19632,-0.94428 0.31279,-1.42742 0.24418,-1.01288 0.36381,-1.6583 0.36403,-1.96396 0,-0.29178 0.16381,-0.61106 0.38972,-0.76056 0.15279,-0.10106 0.27795,-0.13034 0.73204,-0.17101 0.62214,-0.0557 2.72373,-0.0192 3.01192,0.0524 0.65686,0.16303 0.98597,0.88629 0.68686,1.50951 -0.0691,0.14396 -0.18981,0.55568 -0.26827,0.91495 -0.22516,1.0309 -0.63275,2.99433 -0.63275,3.04802 0,0.0321 0.85501,0.0488 2.50663,0.0488 h 2.50662 l 0.25213,0.12565 c 0.27428,0.13668 0.45992,0.38771 0.51671,0.69872 0.0632,0.34634 -0.20504,1.14239 -0.46743,1.38697 -0.19242,0.17937 -0.55648,0.30903 -0.99822,0.35551 -0.23171,0.0243 -1.41385,0.0447 -2.62699,0.0451 l -2.2057,6.7e-4 -0.17826,1.1008 c -0.47389,2.92654 -0.7687,5.57061 -0.91058,8.16685 -0.0896,1.63923 0.0272,2.28441 0.49628,2.74244 0.29424,0.28728 0.61537,0.3897 1.2288,0.39191 0.96813,0.003 1.75818,-0.37185 2.53605,-1.20479 0.34507,-0.3695 0.83229,-1.06219 1.0972,-1.55989 0.0828,-0.15554 0.19576,-0.28858 0.28473,-0.33532 0.32437,-0.17039 1.02519,-0.0134 1.36318,0.30536 0.15927,0.15021 0.1716,0.18059 0.14086,0.34717 -0.0383,0.20791 -0.21172,0.54193 -0.65986,1.27127 -0.47864,0.77903 -0.6845,1.03846 -1.3449,1.69492 -1.26212,1.25462 -2.65704,1.96004 -4.50501,2.27822 -0.56281,0.0969 -1.49524,0.0735 -1.95966,-0.0492 -1.64511,-0.43471 -2.87824,-1.74339 -3.18945,-3.38488 -0.0422,-0.2225 -0.0777,-0.49467 -0.0788,-0.60483 -0.003,-0.23723 0.0288,-0.27071 -0.49185,0.52551 -0.4872,0.74507 -1.40465,1.6623 -2.16728,2.16675 -2.22426,1.47127 -4.81626,1.79707 -6.76887,0.8508 -0.43495,-0.21079 -0.55901,-0.30014 -0.92011,-0.66285 -0.62418,-0.62695 -0.94927,-1.25963 -1.17456,-2.28587 -0.26532,-1.20851 -0.0608,-4.26908 0.48582,-7.26642 0.0473,-0.25948 0.0791,-0.47177 0.0708,-0.47177 -0.008,0 -0.1514,0.11032 -0.31787,0.24516 -0.75411,0.61082 -1.60937,1.08097 -2.5487,1.40107 l -0.64926,0.22125 -0.13764,0.52997 c -0.51482,1.98219 -1.29262,3.71706 -2.31384,5.16098 -0.35188,0.49755 -1.262,1.4666 -1.71261,1.82351 -1.28368,1.01676 -2.7841,1.62636 -4.40835,1.79104 -0.72071,0.073 -2.03264,0.10064 -2.42973,0.051 z m 1.89521,-3.39736 c 0.0105,-0.0333 0.0324,-0.14213 0.049,-0.24193 0.028,-0.16829 0.0421,-0.18145 0.19512,-0.18145 0.25728,0 0.75765,-0.20437 1.10199,-0.45008 1.34456,-0.95946 2.55277,-3.46698 3.10462,-6.44336 l 0.10733,-0.57892 -0.372,-0.36462 c -0.74577,-0.73095 -0.94261,-1.4777 -0.99989,-3.79302 l -0.0297,-1.20258 -0.73034,0.0223 c -0.86006,0.0262 -1.14078,0.10508 -1.69637,0.47668 -1.50435,1.00617 -2.59977,3.51884 -3.00382,6.89009 -0.10201,0.85088 -0.14526,2.5954 -0.0779,3.13699 0.18302,1.46999 0.78871,2.43082 1.71475,2.72023 0.26617,0.0832 0.61252,0.0885 0.63714,0.009 z m -32.56224,2.95897 c -0.69383,-0.0568 -1.40722,-0.17294 -2.1244,-0.34588 -0.71195,-0.17169 -1.07034,-0.36927 -1.36154,-0.75064 -0.17771,-0.23274 -0.36084,-0.74 -0.36084,-0.99949 0,-0.0853 -0.0638,-0.66546 -0.1419,-1.28926 -0.58403,-4.6681 -0.56841,-9.02744 0.0489,-13.66643 0.1911,-1.43595 0.65627,-3.97884 0.8926,-4.87945 0.14786,-0.56352 0.51023,-1.12709 0.92695,-1.44163 0.60197,-0.45438 2.42917,-0.82267 3.66853,-0.73941 0.73778,0.0495 0.8813,0.16252 0.92633,0.72906 0.0225,0.28273 -0.006,0.46651 -0.19319,1.25078 -0.73416,3.07435 -1.21455,6.2303 -1.46204,9.60484 -0.18084,2.46583 -0.11891,8.37026 0.0865,8.24333 0.0634,-0.0391 1.90315,-3.74826 2.91279,-5.87236 1.51871,-3.19509 2.61673,-5.62906 4.22387,-9.3629 1.25097,-2.90638 1.33171,-3.07977 1.54308,-3.31371 0.215,-0.238 0.32493,-0.27667 0.95901,-0.33733 0.71279,-0.0682 1.23222,-0.063 2.01759,0.0205 0.74631,0.0792 1.01485,0.1649 1.11259,0.35502 0.0558,0.10856 0.0719,1.27912 0.096,6.97722 0.0304,7.19692 0.0397,7.50874 0.26277,8.89536 0.32001,1.98862 0.93893,2.99993 1.9181,3.13414 0.38454,0.0527 0.60539,-0.0476 1.00791,-0.45796 0.28723,-0.29278 0.42059,-0.48158 0.6395,-0.90528 1.16058,-2.24632 1.9988,-6.28721 2.39323,-11.53723 0.10912,-1.45241 0.1246,-6.3509 0.0245,-7.71774 -0.0712,-0.97078 -0.0443,-1.22004 0.16619,-1.5401 0.21903,-0.33307 0.3719,-0.36891 1.57912,-0.37013 l 1.05242,-0.001 v 0.11123 c 0,0.10796 0.0195,0.11286 0.66533,0.1667 1.35398,0.11291 1.86945,0.43396 2.1553,1.34238 0.0969,0.30792 0.10613,0.43126 0.0996,1.3313 -0.0272,3.75196 -1.15156,9.44365 -2.73153,13.82647 -1.32312,3.6703 -2.78031,6.25863 -4.45177,7.90749 -1.28818,1.27076 -2.59496,1.7993 -4.05052,1.63828 -1.27621,-0.14118 -2.19175,-0.57496 -2.99238,-1.41779 -0.85104,-0.89594 -1.50003,-2.23581 -1.90715,-3.93744 -0.38148,-1.59445 -0.624,-3.93718 -0.62513,-6.03879 -3e-4,-0.52875 -0.0179,-0.85056 -0.0449,-0.82257 -0.0245,0.0253 -0.22071,0.44451 -0.43613,0.93163 -1.29149,2.92023 -2.86942,6.06604 -4.56766,9.10627 -0.72657,1.30072 -0.96398,1.58882 -1.56836,1.90323 -0.59372,0.30888 -1.12957,0.37007 -2.35921,0.26943 z"
       id="path861" />
  </g>
</svg>
