<?xml version="1.0" encoding="UTF-8" standalone="no"?>
<svg
   xmlns:dc="http://purl.org/dc/elements/1.1/"
   xmlns:cc="http://creativecommons.org/ns#"
   xmlns:rdf="http://www.w3.org/1999/02/22-rdf-syntax-ns#"
   xmlns:svg="http://www.w3.org/2000/svg"
   xmlns="http://www.w3.org/2000/svg"
   xmlns:sodipodi="http://sodipodi.sourceforge.net/DTD/sodipodi-0.dtd"
   xmlns:inkscape="http://www.inkscape.org/namespaces/inkscape"
   width="135.46666mm"
   height="135.46666mm"
   viewBox="0 0 135.46666 135.46666"
   version="1.1"
   id="svg8"
   inkscape:version="1.0.1 (3bc2e813f5, 2020-09-07)"
   sodipodi:docname="logo_round.svg"
   inkscape:export-xdpi="36.000004"
   inkscape:export-ydpi="36.000004">
  <defs
     id="defs2" />
  <sodipodi:namedview
     id="base"
     pagecolor="#ffffff"
     bordercolor="#666666"
     borderopacity="1.0"
     inkscape:pageopacity="0.0"
     inkscape:pageshadow="2"
     inkscape:zoom="0.98994949"
     inkscape:cx="290.99504"
     inkscape:cy="249.26512"
     inkscape:document-units="mm"
     inkscape:current-layer="layer1"
     inkscape:document-rotation="0"
     showgrid="false"
     fit-margin-top="0"
     fit-margin-left="0"
     fit-margin-right="0"
     fit-margin-bottom="0"
     inkscape:window-width="2560"
     inkscape:window-height="1363"
     inkscape:window-x="0"
     inkscape:window-y="0"
     inkscape:window-maximized="1" />
  <metadata
     id="metadata5">
    <rdf:RDF>
      <cc:Work
         rdf:about="">
        <dc:format>image/svg+xml</dc:format>
        <dc:type
           rdf:resource="http://purl.org/dc/dcmitype/StillImage" />
        <dc:title></dc:title>
      </cc:Work>
    </rdf:RDF>
  </metadata>
  <g
     inkscape:label="Layer 1"
     inkscape:groupmode="layer"
     id="layer1"
     transform="translate(-37.26667,-80.76667)">
    <circle
       style="fill:#4ca4dc;stroke-width:0.264999;stroke-linejoin:round;paint-order:stroke fill markers;fill-opacity:1"
       id="path2309"
       cx="105"
       cy="148.5"
       r="67.281868" />
    <rect
       style="fill:#ffffff;fill-opacity:1;stroke-width:0.148798;stroke-linejoin:round;paint-order:stroke fill markers"
       id="rect963"
       width="73.394821"
       height="65.717575"
       x="69.638733"
       y="119.76557" />
    <path
       style="fill:#4ca4dc;fill-opacity:1;stroke-width:0.207019"
       d="M 52.0031,148.5 60.566785,105.39986 105,95.5031 150.09271,102.98665 157.9969,148.5 153.29273,192.44352 105,201.4969 60.713959,192.71547 Z m 71.73213,30.86741 c 0.45544,-0.21086 1.07932,-0.65132 1.3864,-0.97879 1.24192,-1.32443 1.20134,-0.7454 1.20134,-17.13792 v -15.00316 l 1.07422,-1.40976 c 0.59082,-0.77536 2.96682,-3.8458 5.28,-6.82319 2.46912,-3.17811 4.25642,-5.66665 4.32842,-6.02664 0.14224,-0.71121 -0.33867,-1.79103 -0.94127,-2.11354 -0.5054,-0.27048 -1.57981,-0.27471 -2.07782,-0.008 -0.44526,0.23829 -10.72822,13.41621 -11.30946,14.49338 -0.37164,0.68876 -0.39378,1.47914 -0.44787,15.99223 l -0.0569,15.26766 H 105.00247 87.832658 l -0.05939,-15.16414 c -0.05352,-13.67016 -0.0935,-15.23625 -0.405794,-15.89586 -0.524584,-1.10802 -10.904901,-14.34015 -11.499027,-14.65817 -1.524777,-0.81622 -3.5596,1.14433 -2.752644,2.65215 0.134986,0.25222 2.543194,3.4077 5.351563,7.01219 l 5.106145,6.55361 0.103508,15.31942 c 0.113758,16.83631 0.03372,15.84268 1.378893,17.11942 1.305656,1.23923 0.400254,1.18524 19.944078,1.18913 16.99806,0.003 17.94919,-0.0159 18.73523,-0.37983 z m -15.76002,-33.24618 c 2.90758,-0.61601 6.23186,-2.67278 8.11988,-5.02386 1.0595,-1.31934 2.59699,-4.38278 2.95927,-5.89632 1.61452,-6.745 -1.68879,-13.67933 -7.97387,-16.73885 -2.03616,-0.99118 -3.94079,-1.42192 -6.28751,-1.42192 -2.34671,0 -4.25135,0.43074 -6.287508,1.42192 -4.633671,2.25563 -7.558459,6.35078 -8.257189,11.56134 -0.646392,4.82031 1.460023,10.01207 5.337362,13.15518 1.529175,1.23961 4.190047,2.55601 5.929895,2.93366 1.73999,0.37768 4.69964,0.38174 6.45967,0.009 z m -6.0805,-4.22261 c -3.058299,-0.98991 -5.232842,-2.81699 -6.507952,-5.46806 -3.419669,-7.10978 1.603264,-15.25709 9.406222,-15.25709 6.43188,0 11.37483,5.78125 10.38524,12.14655 -0.81524,5.24381 -5.19952,8.99343 -10.47457,8.95827 -1.00792,-0.007 -2.12187,-0.15728 -2.80894,-0.37967 z"
       id="path873"
       sodipodi:nodetypes="cccccccccccscsssscssccccscsccssccccscssssssccsssscs" />
    <path
       id="path954"
       style="fill:#4ca4dc;fill-opacity:1;stroke-width:0.048387"
       sodipodi:type="inkscape:offset"
       inkscape:radius="3.9711032"
       inkscape:original="M 234.7168 171.81445 L 233.66406 171.81641 C 232.45684 171.81763 232.30301 171.85248 232.08398 172.18555 C 231.87349 172.50561 231.84677 172.75578 231.91797 173.72656 C 232.01807 175.0934 232.00365 179.99095 231.89453 181.44336 C 231.5001 186.69338 230.66058 190.73415 229.5 192.98047 C 229.28109 193.40417 229.14856 193.59394 228.86133 193.88672 C 228.45881 194.29708 228.23806 194.39645 227.85352 194.34375 C 226.87435 194.20954 226.25556 193.1976 225.93555 191.20898 C 225.71248 189.82236 225.70227 189.51137 225.67188 182.31445 C 225.64778 176.61635 225.63197 175.44645 225.57617 175.33789 C 225.47843 175.14777 225.2092 175.06162 224.46289 174.98242 C 223.67752 174.89892 223.1581 174.89274 222.44531 174.96094 C 221.81123 175.0216 221.70133 175.06083 221.48633 175.29883 C 221.27496 175.53277 221.19433 175.7069 219.94336 178.61328 C 218.33622 182.34712 217.23941 184.78147 215.7207 187.97656 C 214.71106 190.10066 212.87004 193.80856 212.80664 193.84766 C 212.60123 193.97459 212.53986 188.0713 212.7207 185.60547 C 212.96819 182.23093 213.44943 179.07435 214.18359 176 C 214.37078 175.21573 214.39945 175.03273 214.37695 174.75 C 214.33192 174.18346 214.187 174.06903 213.44922 174.01953 C 212.20986 173.93627 210.38322 174.30539 209.78125 174.75977 C 209.36453 175.07431 209.00138 175.63765 208.85352 176.20117 C 208.61719 177.10178 208.15204 179.64413 207.96094 181.08008 C 207.34363 185.71907 207.32808 190.07799 207.91211 194.74609 C 207.99021 195.36989 208.05469 195.95181 208.05469 196.03711 C 208.05469 196.2966 208.23831 196.80242 208.41602 197.03516 C 208.70722 197.41653 209.06539 197.61542 209.77734 197.78711 C 210.49452 197.96005 211.20851 198.07601 211.90234 198.13281 C 213.13198 198.23345 213.66605 198.17216 214.25977 197.86328 C 214.86415 197.54887 215.10155 197.2597 215.82812 195.95898 C 217.52636 192.91875 219.10499 189.77375 220.39648 186.85352 C 220.6119 186.3664 220.80753 185.94717 220.83203 185.92188 C 220.85903 185.89389 220.87665 186.21539 220.87695 186.74414 C 220.87808 188.84575 221.12047 191.18875 221.50195 192.7832 C 221.90907 194.48483 222.55912 195.82476 223.41016 196.7207 C 224.21079 197.56353 225.12613 197.99749 226.40234 198.13867 C 227.8579 198.29969 229.16494 197.77076 230.45312 196.5 C 232.12459 194.85114 233.58118 192.2621 234.9043 188.5918 C 236.48427 184.20898 237.60952 178.51758 237.63672 174.76562 C 237.64325 173.86558 237.63401 173.74347 237.53711 173.43555 C 237.25126 172.52713 236.73484 172.20471 235.38086 172.0918 C 234.73503 172.03796 234.7168 172.03374 234.7168 171.92578 L 234.7168 171.81445 z M 261.22461 172.61523 C 260.563 172.70752 260.43201 172.76033 260.11523 173.05664 C 259.81633 173.33622 259.66069 173.62659 259.58789 174.04297 C 259.55794 174.21429 259.44928 174.74753 259.3457 175.22656 C 258.84327 177.55026 258.25485 180.77043 257.86523 183.33398 C 257.81644 183.65506 256.91668 184.56775 256.12305 185.09961 C 255.51572 185.50661 254.20343 186.08789 253.89453 186.08789 C 253.84323 186.08789 253.82812 185.99013 253.82812 185.65625 C 253.82813 182.74409 251.69579 180.29678 248.78516 179.86719 C 247.86938 179.73203 246.51762 179.84574 245.2832 180.16211 C 241.74578 181.06874 238.85306 183.77053 237.7207 187.22656 C 237.27717 188.58027 237.18825 189.23195 237.15625 191.38477 C 237.12956 193.18159 237.15532 193.48139 237.4043 194.26953 C 238.13589 196.58543 240.15917 198.26931 242.56836 198.57031 C 242.96545 198.61995 244.27734 198.59253 244.99805 198.51953 C 246.6223 198.35485 248.12257 197.74528 249.40625 196.72852 C 249.85686 196.37161 250.76726 195.40185 251.11914 194.9043 C 252.14036 193.46038 252.91877 191.72633 253.43359 189.74414 L 253.57031 189.21484 L 254.2207 188.99219 C 255.16003 188.67209 256.01542 188.20262 256.76953 187.5918 C 256.936 187.45696 257.07794 187.34766 257.08594 187.34766 C 257.09424 187.34766 257.06293 187.55888 257.01562 187.81836 C 256.46901 190.8157 256.26398 193.87743 256.5293 195.08594 C 256.75459 196.11218 257.0809 196.74414 257.70508 197.37109 C 258.06618 197.7338 258.19005 197.82241 258.625 198.0332 C 260.57761 198.97947 263.16832 198.65486 265.39258 197.18359 C 266.15521 196.67914 267.07335 195.76069 267.56055 195.01562 C 268.0812 194.2194 268.04973 194.253 268.05273 194.49023 C 268.05383 194.60039 268.08866 194.8732 268.13086 195.0957 C 268.44207 196.73719 269.6752 198.04576 271.32031 198.48047 C 271.78473 198.60317 272.71844 198.6262 273.28125 198.5293 C 275.12922 198.21112 276.52304 197.50657 277.78516 196.25195 C 278.44556 195.59549 278.65222 195.33567 279.13086 194.55664 C 279.579 193.8273 279.75272 193.49307 279.79102 193.28516 C 279.82176 193.11858 279.80966 193.08771 279.65039 192.9375 C 279.3124 192.61874 278.61148 192.46242 278.28711 192.63281 C 278.19814 192.67955 278.08475 192.81321 278.00195 192.96875 C 277.73704 193.46645 277.24937 194.15784 276.9043 194.52734 C 276.12643 195.36028 275.33727 195.73542 274.36914 195.73242 C 273.75571 195.73021 273.43291 195.62712 273.13867 195.33984 C 272.66959 194.88181 272.55298 194.23689 272.64258 192.59766 C 272.78446 190.00142 273.0808 187.35818 273.55469 184.43164 L 273.73242 183.33008 L 275.9375 183.33008 C 277.15064 183.32968 278.33274 183.30946 278.56445 183.28516 C 279.00619 183.23868 279.37008 183.10906 279.5625 182.92969 C 279.82489 182.68511 280.09445 181.88931 280.03125 181.54297 C 279.97446 181.23196 279.78795 180.98043 279.51367 180.84375 L 279.26172 180.71875 L 276.75586 180.71875 C 275.10424 180.71875 274.24805 180.70202 274.24805 180.66992 C 274.24805 180.61623 274.6557 178.65199 274.88086 177.62109 C 274.95932 177.26182 275.07934 176.85099 275.14844 176.70703 C 275.44755 176.08381 275.11975 175.3603 274.46289 175.19727 C 274.1747 175.12567 272.07331 175.08883 271.45117 175.14453 C 270.99708 175.1852 270.87154 175.21339 270.71875 175.31445 C 270.49284 175.46395 270.32812 175.78439 270.32812 176.07617 C 270.32791 176.38183 270.20902 177.02618 269.96484 178.03906 C 269.84837 178.5222 269.70794 179.16486 269.65234 179.4668 C 269.59679 179.76874 269.53994 180.06415 269.52734 180.12305 L 269.50586 180.23047 L 267.96094 180.24414 L 266.41797 180.25781 L 266.29492 180.37305 C 265.99824 180.65197 265.88943 181.39699 265.98633 182.49609 C 266.0887 183.658 266.02875 183.62109 267.83594 183.62109 C 269.07615 183.62109 269.11914 183.62374 269.11914 183.71484 C 269.11914 183.93868 268.95753 185.0079 268.73047 186.28516 C 268.59595 187.0418 268.43379 188.00974 268.37109 188.43555 C 268.24806 189.27114 268.11243 189.70954 267.6582 190.73438 C 266.56452 193.20194 264.92878 194.91607 263.44922 195.14453 C 262.96784 195.21886 262.30489 195.14354 261.93164 194.97266 C 261.6035 194.82244 261.41582 194.54768 261.32422 194.08398 C 261.17758 193.34156 261.28088 190.87098 261.54883 188.75 C 261.8343 186.49033 262.54165 183.19328 262.95508 182.19336 C 264.04685 179.55272 264.61031 177.58266 264.95508 175.20117 C 265.11358 174.10689 265.1239 173.89397 265.0332 173.58203 C 264.92842 173.22164 264.60132 172.88021 264.25391 172.76758 C 263.57683 172.54808 262.20569 172.4784 261.22461 172.61523 z "
       d="m 234.70898,167.84375 -1.05273,0.002 c -0.63956,3.8e-4 -1.04705,-0.0707 -2.05469,0.16407 -1.00954,0.23521 -2.52686,1.52413 -2.83594,1.99414 -0.31586,0.48028 -0.70572,1.49491 -0.79882,2.22656 -0.54617,-0.4418 -1.10661,-0.77012 -1.4961,-0.89453 -0.69933,-0.22339 -1.11431,-0.25248 -1.58789,-0.30274 -0.94793,-0.10078 -1.89889,-0.11318 -2.8164,-0.0254 -0.37618,0.036 -0.76904,0.0251 -1.57813,0.31055 -0.80909,0.28546 -1.68885,1.03014 -1.94922,1.31836 -0.11622,0.12863 -0.28454,0.45875 -0.45312,0.7168 -0.20464,-0.73617 -0.5598,-1.57607 -1.45508,-2.28125 -1.40561,-1.10717 -2.36053,-0.97836 -2.91602,-1.01563 -1.14144,-0.0767 -2.1358,0.0386 -3.125,0.23828 -0.9892,0.19972 -1.77131,0.21564 -3.20117,1.29492 -1.35103,1.01976 -1.98888,2.1245 -2.37695,3.60352 -0.37733,1.43793 -0.76492,3.69962 -0.98633,5.36328 -0.65906,4.95277 -0.67565,9.70277 -0.0527,14.68164 a 3.9715003,3.9715003 0 0 0 0,0.002 c 0.0369,0.29454 0.0707,0.58072 0.0937,0.78907 0.0115,0.10417 0.0193,0.19081 0.0234,0.23437 0.004,0.0436 -0.006,0.25242 -0.006,-0.22656 0,1.06642 0.1841,1.39918 0.35157,1.86133 0.16746,0.46215 0.29361,0.85196 0.82422,1.54687 0.84022,1.10041 2.4896,1.93874 3.58593,2.20313 0.90781,0.21891 1.82135,0.36682 2.73242,0.4414 1.45346,0.11896 3.24579,-0.0435 4.51368,-0.70312 0.55552,-0.289 1.43155,-0.92474 1.97265,-1.58203 0.54111,-0.65729 0.83849,-1.20647 1.23047,-1.90821 0.0266,-0.0476 0.0457,-0.0949 0.0723,-0.14257 0.36039,0.58282 0.67869,1.19019 1.16406,1.70117 1.37276,1.44511 3.4797,2.41471 5.43359,2.63086 2.65843,0.29408 5.42531,-0.93278 7.27735,-2.75977 0.52281,-0.51574 0.90313,-1.22442 1.36133,-1.82226 1.58225,2.69876 4.29095,4.61029 7.47265,5.00781 0.82197,0.10275 1.11834,0.0603 1.66797,0.0488 0.54963,-0.0115 1.10319,-0.034 1.6543,-0.0899 2.35852,-0.23912 4.61404,-1.15675 6.47265,-2.6289 0.73987,-0.58602 1.13219,-1.14585 1.59571,-1.69532 0.38942,0.75947 0.87209,1.47093 1.42382,2.0254 0.45331,0.45533 1.44024,1.16332 2.00196,1.43554 3.3926,1.64412 7.21765,1.00719 10.34375,-0.93164 0.90557,0.73039 1.91563,1.33942 3.07031,1.64453 1.61664,0.42712 2.25817,0.36241 3.64844,0.12305 2.48497,-0.42786 4.85724,-1.61386 6.6289,-3.375 0.73819,-0.73378 1.39032,-1.55572 1.92969,-2.43359 0.4918,-0.80039 0.89507,-1.06463 1.1836,-2.63086 l -0.002,0.002 c 0.0402,-0.21778 0.24088,-1.24272 -0.2207,-2.38672 -0.46158,-1.144 -0.95771,-1.43648 -1.09961,-1.57031 -0.93008,-0.87717 -1.70735,-1.13521 -2.54492,-1.32227 -0.71148,-0.1589 -1.56685,-0.25151 -2.78906,0.21289 0.0609,-0.5448 0.10974,-1.08432 0.18554,-1.64843 0.14665,-0.002 0.32794,-0.002 0.46094,-0.004 0.5044,-0.009 0.59211,0.0206 1.29102,-0.0527 a 3.9715003,3.9715003 0 0 0 0.002,0 c 0.98013,-0.10314 1.96804,-0.16896 3.28906,-1.4004 1.20644,-1.12454 1.19425,-1.6431 1.41211,-2.2871 0.21786,-0.64401 0.56287,-1.03437 0.25586,-2.7168 -0.26481,-1.45023 -1.28057,-2.85743 -2.65234,-3.54102 a 3.9715003,3.9715003 0 0 0 -0.006,-0.002 l -0.25196,-0.125 a 3.9715003,3.9715003 0 0 0 -1.76562,-0.41406 h -0.17578 c 0.18666,-2.35582 -1.2326,-4.80033 -3.66602,-5.4043 -1.09069,-0.27098 -0.94399,-0.14214 -1.25781,-0.1582 -0.31382,-0.0161 -0.65574,-0.027 -1.00977,-0.0332 -0.70804,-0.0124 -1.27064,-0.0331 -2.05468,0.0371 -0.27586,0.0247 -0.54133,0.038 -1.01954,0.14844 -0.46134,0.10653 -1.1321,0.41029 -1.49609,0.64063 -0.56234,-1.47759 -1.42443,-2.44393 -3.10351,-2.98829 -1.93864,-0.62848 -3.13766,-0.54082 -4.80274,-0.30859 -0.39794,0.0555 -0.86622,0.0941 -1.60547,0.38867 -0.73925,0.29455 -1.39611,0.83165 -1.66797,1.08594 -0.79843,0.74682 -1.54233,2.1494 -1.72656,3.20313 0.01,-0.0567 -0.11477,0.58258 -0.21094,1.02734 -0.27094,1.25311 -0.51195,2.79934 -0.7832,4.29101 -1.44436,-1.38652 -3.23375,-2.43089 -5.31641,-2.73828 -1.79244,-0.26454 -3.38023,-0.0576 -5.06835,0.375 -1.05643,0.27076 -2.04192,0.70184 -2.99415,1.18555 0.0785,-0.89041 0.29875,-1.88478 0.30469,-2.70508 0.003,-0.46491 0.0122,-0.76415 -0.0215,-1.21289 -0.0336,-0.44874 -0.179,-1.07503 -0.26172,-1.33789 -0.30807,-0.97903 -1.14458,-2.38868 -2.36328,-3.14844 -0.92261,-0.57516 -1.74257,-0.74928 -2.50977,-0.85156 a 3.9715003,3.9715003 0 0 0 -1.74219,-0.40039 z m 31.53516,8.44336 h 0.0605 c -4e-5,-2.6e-4 3e-5,0.002 0,0.002 a 3.9715003,3.9715003 0 0 0 -0.0605,0.002 z m -8.51367,9.00586 c 0.0124,0.0332 0.0579,0.27539 0.0684,0.36328 -0.0108,-0.0607 -0.0564,-0.30286 -0.0684,-0.36328 z m 19.38476,1.99805 -0.002,0.01 h -1.17383 c 0.42255,-1.4e-4 0.79468,-0.006 1.17578,-0.01 z m -19.83789,3.45117 -0.14648,0.57031 c -0.004,4.9e-4 -0.0449,0.006 -0.0449,0.006 0,0 -0.008,-0.002 -0.008,-0.002 0.0569,-0.19744 0.14721,-0.37397 0.19922,-0.57422 z m -0.31054,1.20312 -0.0859,0.33399 -0.1582,0.0547 c 0.0359,-0.10525 0.0749,-0.20828 0.10937,-0.31445 0.0464,-0.0224 0.0887,-0.0512 0.13477,-0.0742 z m 7.11523,2.58399 c 4.6e-4,0.0461 0.007,0.0268 0.008,0.0684 0.002,0.0133 -0.008,-0.0683 -0.008,-0.0566 z"
       transform="matrix(0.78243458,0,0,0.78243458,-85.728649,-27.242382)" />
    <path
       style="fill:#ffffff;fill-opacity:1;stroke-width:0.0378597"
       d="m 104.06532,128.12621 c -1.88503,-0.23551 -3.46757,-1.55409 -4.03999,-3.36613 -0.194813,-0.61667 -0.214851,-0.84978 -0.193968,-2.25567 0.02504,-1.68444 0.09436,-2.19576 0.441398,-3.25495 0.88599,-2.70412 3.14812,-4.81749 5.91592,-5.52687 0.96586,-0.24754 2.02479,-0.33679 2.74133,-0.23104 2.27738,0.33613 3.94581,2.25171 3.94581,4.53028 0,0.26124 0.0118,0.33801 0.052,0.33801 0.24169,0 1.26793,-0.4559 1.74313,-0.77435 0.62096,-0.41614 1.32515,-1.12913 1.36333,-1.38035 0.30485,-2.00581 0.76497,-4.52667 1.15809,-6.34481 0.081,-0.37481 0.16651,-0.79114 0.18995,-0.92518 0.057,-0.32579 0.17846,-0.55331 0.41233,-0.77206 0.24785,-0.23185 0.35025,-0.27251 0.86792,-0.34472 0.76763,-0.10706 1.84007,-0.0536 2.36984,0.11815 0.27183,0.0881 0.5281,0.35622 0.61008,0.63821 0.071,0.24407 0.063,0.41046 -0.061,1.26666 -0.26976,1.86336 -0.71062,3.40461 -1.56486,5.47074 -0.32348,0.78237 -0.87657,3.36195 -1.09993,5.12999 -0.20965,1.65953 -0.29151,3.59221 -0.17677,4.17311 0.0717,0.36281 0.2191,0.57846 0.47585,0.696 0.29204,0.1337 0.81056,0.19228 1.18721,0.13412 1.15766,-0.17875 2.4381,-1.52027 3.29383,-3.45098 0.35541,-0.80186 0.46172,-1.14454 0.55799,-1.79834 0.0491,-0.33317 0.17529,-1.09013 0.28054,-1.68215 0.17766,-0.99938 0.30421,-1.83597 0.30421,-2.01111 0,-0.0713 -0.0341,-0.0737 -1.0045,-0.0737 -1.41401,0 -1.36625,0.029 -1.44634,-0.88009 -0.0758,-0.85997 0.009,-1.44296 0.24097,-1.66119 l 0.0957,-0.09 1.20817,-0.0109 1.20818,-0.011 0.0178,-0.0837 c 0.01,-0.0461 0.0534,-0.27697 0.0968,-0.51322 0.0435,-0.23625 0.1536,-0.73884 0.24473,-1.11686 0.19106,-0.79252 0.28466,-1.29751 0.28483,-1.53667 0,-0.2283 0.12817,-0.47812 0.30493,-0.59509 0.11955,-0.0791 0.21748,-0.10198 0.57278,-0.13381 0.48678,-0.0436 2.13114,-0.015 2.35663,0.041 0.51395,0.12756 0.77145,0.69347 0.53742,1.1811 -0.0541,0.11264 -0.14851,0.43478 -0.2099,0.71588 -0.17618,0.80662 -0.49509,2.34287 -0.49509,2.38488 0,0.0251 0.66899,0.0382 1.96127,0.0382 h 1.96127 l 0.19728,0.0983 c 0.2146,0.10694 0.35985,0.30335 0.40429,0.5467 0.0495,0.27099 -0.16043,0.89384 -0.36574,1.08521 -0.15055,0.14035 -0.4354,0.2418 -0.78104,0.27817 -0.1813,0.019 -1.10624,0.035 -2.05545,0.0353 l -1.72581,5.3e-4 -0.13948,0.8613 c -0.37079,2.28983 -0.60146,4.35864 -0.71247,6.39003 -0.0701,1.28259 0.0213,1.7874 0.38831,2.14578 0.23022,0.22478 0.48149,0.30491 0.96145,0.30664 0.7575,0.002 1.37567,-0.29095 1.9843,-0.94267 0.26999,-0.28911 0.65121,-0.83109 0.85849,-1.22051 0.0648,-0.1217 0.15316,-0.22579 0.22278,-0.26237 0.2538,-0.13331 0.80214,-0.0105 1.0666,0.23893 0.12462,0.11753 0.13426,0.1413 0.11021,0.27164 -0.03,0.16267 -0.16566,0.42402 -0.5163,0.99468 -0.3745,0.60954 -0.53557,0.81253 -1.05229,1.32617 -0.98753,0.98165 -2.07896,1.5336 -3.52488,1.78255 -0.44036,0.0758 -1.16993,0.0575 -1.5333,-0.0385 -1.2872,-0.34013 -2.25204,-1.36409 -2.49554,-2.64845 -0.033,-0.17409 -0.0608,-0.38705 -0.0617,-0.47324 -0.002,-0.18562 0.0225,-0.21181 -0.38484,0.41118 -0.3812,0.58297 -1.09904,1.30064 -1.69575,1.69534 -1.74034,1.15117 -3.76841,1.40609 -5.2962,0.66569 -0.34032,-0.16493 -0.43739,-0.23484 -0.71993,-0.51863 -0.48838,-0.49055 -0.74274,-0.98558 -0.91901,-1.78855 -0.2076,-0.94558 -0.0476,-3.34027 0.38012,-5.68549 0.037,-0.20303 0.0619,-0.36913 0.0554,-0.36913 -0.006,0 -0.11846,0.0863 -0.24872,0.19182 -0.59004,0.47792 -1.25922,0.84579 -1.99419,1.09624 l -0.508,0.17312 -0.10769,0.41466 c -0.40282,1.55094 -1.01139,2.90836 -1.81043,4.03813 -0.27533,0.3893 -0.98743,1.14752 -1.34001,1.42678 -1.00439,0.79555 -2.17837,1.27252 -3.44924,1.40137 -0.56391,0.0571 -1.59041,0.0787 -1.90111,0.0399 z m 1.48288,-2.65821 c 0.008,-0.0261 0.0254,-0.11121 0.0383,-0.1893 0.0219,-0.13167 0.0329,-0.14197 0.15267,-0.14197 0.2013,0 0.59281,-0.15991 0.86223,-0.35216 1.05203,-0.75071 1.99738,-2.71268 2.42916,-5.04151 l 0.084,-0.45296 -0.29106,-0.28529 c -0.58352,-0.57192 -0.73754,-1.15621 -0.78235,-2.96779 l -0.0232,-0.94094 -0.57144,0.0174 c -0.67295,0.0205 -0.89259,0.0822 -1.3273,0.37298 -1.17706,0.78726 -2.03415,2.75326 -2.3503,5.39104 -0.0798,0.66576 -0.11365,2.03073 -0.061,2.45449 0.1432,1.15017 0.61712,1.90196 1.34168,2.1284 0.20826,0.0651 0.47926,0.0692 0.49852,0.007 z m -25.477826,2.3152 c -0.542876,-0.0444 -1.101057,-0.13532 -1.662204,-0.27063 -0.557054,-0.13434 -0.837471,-0.28893 -1.065316,-0.58733 -0.139046,-0.1821 -0.282333,-0.579 -0.282333,-0.78203 0,-0.0667 -0.04992,-0.52068 -0.111028,-1.00876 -0.456965,-3.65249 -0.444743,-7.06339 0.03826,-10.69309 0.149524,-1.12354 0.513489,-3.11318 0.698401,-3.81785 0.115691,-0.44092 0.399222,-0.88188 0.725278,-1.12798 0.471002,-0.35553 1.900667,-0.64369 2.870385,-0.57854 0.577264,0.0387 0.689559,0.12716 0.724793,0.57044 0.0176,0.22122 -0.0047,0.36501 -0.151159,0.97865 -0.574432,2.40548 -0.950306,4.8748 -1.143951,7.51516 -0.141495,1.92935 -0.09304,6.54918 0.06768,6.44987 0.04961,-0.0306 1.48909,-2.93277 2.279068,-4.59474 1.188291,-2.49995 2.04742,-4.40437 3.304902,-7.32586 0.978802,-2.27405 1.041975,-2.40972 1.207359,-2.59276 0.168223,-0.18622 0.254236,-0.21647 0.750362,-0.26394 0.557712,-0.0534 0.964132,-0.0493 1.578632,0.016 0.583939,0.062 0.794054,0.12903 0.870529,0.27778 0.04366,0.0849 0.05626,1.00083 0.07511,5.45922 0.02379,5.63112 0.03106,5.8751 0.2056,6.96004 0.250387,1.55596 0.734652,2.34725 1.500788,2.45226 0.300878,0.0412 0.473678,-0.0373 0.788624,-0.35833 0.224739,-0.22908 0.329084,-0.3768 0.500367,-0.70832 0.908078,-1.7576 1.56393,-4.91933 1.872546,-9.02713 0.08538,-1.13641 0.09749,-4.96916 0.01917,-6.03862 -0.05571,-0.75957 -0.03466,-0.9546 0.130033,-1.20503 0.171377,-0.26061 0.290988,-0.28865 1.235558,-0.2896 l 0.82345,-7.9e-4 v 0.087 c 0,0.0845 0.01526,0.0883 0.520577,0.13043 1.059401,0.0883 1.462723,0.33954 1.686375,1.05032 0.0758,0.24093 0.083,0.33743 0.0779,1.04166 -0.0213,2.93566 -0.901013,7.38903 -2.137237,10.8183 -1.035254,2.87177 -2.17541,4.89697 -3.483218,6.1871 -1.007917,0.99429 -2.030387,1.40783 -3.169267,1.28185 -0.998551,-0.11047 -1.714901,-0.44987 -2.341342,-1.10933 -0.665883,-0.70102 -1.173675,-1.74938 -1.49222,-3.08079 -0.298483,-1.24755 -0.488239,-3.08059 -0.489123,-4.72496 -2.35e-4,-0.41371 -0.01401,-0.66551 -0.03513,-0.64361 -0.01917,0.0198 -0.172691,0.3478 -0.341243,0.72894 -1.010506,2.28489 -2.245133,4.74628 -3.573895,7.12506 -0.568494,1.01773 -0.754251,1.24315 -1.227139,1.48916 -0.464547,0.24167 -0.883815,0.28955 -1.845928,0.21081 z"
       id="path861" />
  </g>
</svg>
