<?xml version="1.0" encoding="UTF-8" standalone="no"?>
<svg
   xmlns:dc="http://purl.org/dc/elements/1.1/"
   xmlns:cc="http://creativecommons.org/ns#"
   xmlns:rdf="http://www.w3.org/1999/02/22-rdf-syntax-ns#"
   xmlns:svg="http://www.w3.org/2000/svg"
   xmlns="http://www.w3.org/2000/svg"
   xmlns:sodipodi="http://sodipodi.sourceforge.net/DTD/sodipodi-0.dtd"
   xmlns:inkscape="http://www.inkscape.org/namespaces/inkscape"
   width="135.46666mm"
   height="135.46666mm"
   viewBox="0 0 135.46666 135.46666"
   version="1.1"
   id="svg8"
   inkscape:version="1.0.1 (3bc2e813f5, 2020-09-07)"
   sodipodi:docname="logo.svg"
   inkscape:export-xdpi="36.000004"
   inkscape:export-ydpi="36.000004">
  <defs
     id="defs2" />
  <sodipodi:namedview
     id="base"
     pagecolor="#ffffff"
     bordercolor="#666666"
     borderopacity="1.0"
     inkscape:pageopacity="0.0"
     inkscape:pageshadow="2"
     inkscape:zoom="0.98994949"
     inkscape:cx="392.85089"
     inkscape:cy="313.13096"
     inkscape:document-units="mm"
     inkscape:current-layer="layer1"
     inkscape:document-rotation="0"
     showgrid="false"
     fit-margin-top="0"
     fit-margin-left="0"
     fit-margin-right="0"
     fit-margin-bottom="0"
     inkscape:window-width="2560"
     inkscape:window-height="1363"
     inkscape:window-x="0"
     inkscape:window-y="0"
     inkscape:window-maximized="1" />
  <metadata
     id="metadata5">
    <rdf:RDF>
      <cc:Work
         rdf:about="">
        <dc:format>image/svg+xml</dc:format>
        <dc:type
           rdf:resource="http://purl.org/dc/dcmitype/StillImage" />
        <dc:title />
      </cc:Work>
    </rdf:RDF>
  </metadata>
  <g
     inkscape:label="Layer 1"
     inkscape:groupmode="layer"
     id="layer1"
     transform="translate(-37.26667,-80.76667)">
    <rect
       style="fill:#ffffff;fill-opacity:1;stroke-width:0.264999;stroke-linejoin:round;paint-order:stroke fill markers"
       id="rect963"
       width="123.59443"
       height="123.77731"
       x="44.271778"
       y="86.677696" />
    <path
       style="fill:#4ca4dc;fill-opacity:1;stroke-width:0.264583"
       d="M 37.26667,148.5 V 80.76667 H 105 172.73333 V 148.5 216.23333 H 105 37.26667 Z m 91.67812,39.45047 c 0.58208,-0.2695 1.37944,-0.83243 1.7719,-1.25096 1.58726,-1.6927 1.53539,-0.95267 1.53539,-21.90332 v -19.17498 l 1.37292,-1.80175 c 0.7551,-0.99096 3.79178,-4.91517 6.74817,-8.72047 3.15569,-4.06182 5.43997,-7.24232 5.53199,-7.70241 0.18179,-0.90897 -0.43284,-2.28905 -1.20301,-2.70124 -0.64593,-0.34569 -2.01909,-0.3511 -2.65558,-0.0105 -0.56907,0.30455 -13.71133,17.14675 -14.45419,18.52345 -0.47498,0.88028 -0.50327,1.89043 -0.57241,20.43906 l -0.0727,19.51302 H 105.00316 83.05907 l -0.0759,-19.38072 c -0.0684,-17.47131 -0.1195,-19.47287 -0.51863,-20.31589 -0.67045,-1.41612 -13.93714,-18.3276 -14.69647,-18.73406 -1.94876,-1.04317 -4.54939,1.46253 -3.51805,3.38962 0.17252,0.32235 3.25036,4.35525 6.83963,8.96201 l 6.52597,8.37593 0.13229,19.57917 c 0.14539,21.51784 0.0431,20.24792 1.76231,21.87967 1.66871,1.58382 0.51155,1.51482 25.48977,1.51979 21.72458,0.004 22.94018,-0.0203 23.94479,-0.48545 z M 108.8025,145.45978 c 3.71607,-0.7873 7.96471,-3.41598 10.37772,-6.4208 1.3541,-1.6862 3.31911,-5.60146 3.78213,-7.53586 2.06345,-8.62053 -2.15838,-17.48304 -10.1911,-21.3933 -2.60234,-1.26679 -5.03658,-1.8173 -8.03583,-1.8173 -2.99925,0 -5.4335,0.55051 -8.03583,1.8173 -5.92212,2.88284 -9.66018,8.1167 -10.5532,14.77612 -0.82613,6.16065 1.866,12.79604 6.82148,16.81314 1.95438,1.58429 5.35514,3.26673 7.57877,3.74939 2.22382,0.4827 6.00643,0.48789 8.25586,0.0113 z m -7.77125,-5.39676 c -3.9087,-1.26516 -6.6879,-3.60028 -8.31757,-6.98851 -4.37055,-9.08674 2.04907,-19.49951 12.02174,-19.49951 8.22034,0 14.53773,7.3888 13.27298,15.52404 -1.04193,6.70192 -6.64531,11.49417 -13.38715,11.44923 -1.28819,-0.009 -2.71189,-0.20102 -3.59,-0.48525 z"
       id="path873" />
    <path
       id="path954"
       style="fill:#4ca4dc;fill-opacity:1;stroke-width:0.048387"
       sodipodi:type="inkscape:offset"
       inkscape:radius="3.9711032"
       inkscape:original="M 234.7168 171.81445 L 233.66406 171.81641 C 232.45684 171.81763 232.30301 171.85248 232.08398 172.18555 C 231.87349 172.50561 231.84677 172.75578 231.91797 173.72656 C 232.01807 175.0934 232.00365 179.99095 231.89453 181.44336 C 231.5001 186.69338 230.66058 190.73415 229.5 192.98047 C 229.28109 193.40417 229.14856 193.59394 228.86133 193.88672 C 228.45881 194.29708 228.23806 194.39645 227.85352 194.34375 C 226.87435 194.20954 226.25556 193.1976 225.93555 191.20898 C 225.71248 189.82236 225.70227 189.51137 225.67188 182.31445 C 225.64778 176.61635 225.63197 175.44645 225.57617 175.33789 C 225.47843 175.14777 225.2092 175.06162 224.46289 174.98242 C 223.67752 174.89892 223.1581 174.89274 222.44531 174.96094 C 221.81123 175.0216 221.70133 175.06083 221.48633 175.29883 C 221.27496 175.53277 221.19433 175.7069 219.94336 178.61328 C 218.33622 182.34712 217.23941 184.78147 215.7207 187.97656 C 214.71106 190.10066 212.87004 193.80856 212.80664 193.84766 C 212.60123 193.97459 212.53986 188.0713 212.7207 185.60547 C 212.96819 182.23093 213.44943 179.07435 214.18359 176 C 214.37078 175.21573 214.39945 175.03273 214.37695 174.75 C 214.33192 174.18346 214.187 174.06903 213.44922 174.01953 C 212.20986 173.93627 210.38322 174.30539 209.78125 174.75977 C 209.36453 175.07431 209.00138 175.63765 208.85352 176.20117 C 208.61719 177.10178 208.15204 179.64413 207.96094 181.08008 C 207.34363 185.71907 207.32808 190.07799 207.91211 194.74609 C 207.99021 195.36989 208.05469 195.95181 208.05469 196.03711 C 208.05469 196.2966 208.23831 196.80242 208.41602 197.03516 C 208.70722 197.41653 209.06539 197.61542 209.77734 197.78711 C 210.49452 197.96005 211.20851 198.07601 211.90234 198.13281 C 213.13198 198.23345 213.66605 198.17216 214.25977 197.86328 C 214.86415 197.54887 215.10155 197.2597 215.82812 195.95898 C 217.52636 192.91875 219.10499 189.77375 220.39648 186.85352 C 220.6119 186.3664 220.80753 185.94717 220.83203 185.92188 C 220.85903 185.89389 220.87665 186.21539 220.87695 186.74414 C 220.87808 188.84575 221.12047 191.18875 221.50195 192.7832 C 221.90907 194.48483 222.55912 195.82476 223.41016 196.7207 C 224.21079 197.56353 225.12613 197.99749 226.40234 198.13867 C 227.8579 198.29969 229.16494 197.77076 230.45312 196.5 C 232.12459 194.85114 233.58118 192.2621 234.9043 188.5918 C 236.48427 184.20898 237.60952 178.51758 237.63672 174.76562 C 237.64325 173.86558 237.63401 173.74347 237.53711 173.43555 C 237.25126 172.52713 236.73484 172.20471 235.38086 172.0918 C 234.73503 172.03796 234.7168 172.03374 234.7168 171.92578 L 234.7168 171.81445 z M 261.22461 172.61523 C 260.563 172.70752 260.43201 172.76033 260.11523 173.05664 C 259.81633 173.33622 259.66069 173.62659 259.58789 174.04297 C 259.55794 174.21429 259.44928 174.74753 259.3457 175.22656 C 258.84327 177.55026 258.25485 180.77043 257.86523 183.33398 C 257.81644 183.65506 256.91668 184.56775 256.12305 185.09961 C 255.51572 185.50661 254.20343 186.08789 253.89453 186.08789 C 253.84323 186.08789 253.82812 185.99013 253.82812 185.65625 C 253.82813 182.74409 251.69579 180.29678 248.78516 179.86719 C 247.86938 179.73203 246.51762 179.84574 245.2832 180.16211 C 241.74578 181.06874 238.85306 183.77053 237.7207 187.22656 C 237.27717 188.58027 237.18825 189.23195 237.15625 191.38477 C 237.12956 193.18159 237.15532 193.48139 237.4043 194.26953 C 238.13589 196.58543 240.15917 198.26931 242.56836 198.57031 C 242.96545 198.61995 244.27734 198.59253 244.99805 198.51953 C 246.6223 198.35485 248.12257 197.74528 249.40625 196.72852 C 249.85686 196.37161 250.76726 195.40185 251.11914 194.9043 C 252.14036 193.46038 252.91877 191.72633 253.43359 189.74414 L 253.57031 189.21484 L 254.2207 188.99219 C 255.16003 188.67209 256.01542 188.20262 256.76953 187.5918 C 256.936 187.45696 257.07794 187.34766 257.08594 187.34766 C 257.09424 187.34766 257.06293 187.55888 257.01562 187.81836 C 256.46901 190.8157 256.26398 193.87743 256.5293 195.08594 C 256.75459 196.11218 257.0809 196.74414 257.70508 197.37109 C 258.06618 197.7338 258.19005 197.82241 258.625 198.0332 C 260.57761 198.97947 263.16832 198.65486 265.39258 197.18359 C 266.15521 196.67914 267.07335 195.76069 267.56055 195.01562 C 268.0812 194.2194 268.04973 194.253 268.05273 194.49023 C 268.05383 194.60039 268.08866 194.8732 268.13086 195.0957 C 268.44207 196.73719 269.6752 198.04576 271.32031 198.48047 C 271.78473 198.60317 272.71844 198.6262 273.28125 198.5293 C 275.12922 198.21112 276.52304 197.50657 277.78516 196.25195 C 278.44556 195.59549 278.65222 195.33567 279.13086 194.55664 C 279.579 193.8273 279.75272 193.49307 279.79102 193.28516 C 279.82176 193.11858 279.80966 193.08771 279.65039 192.9375 C 279.3124 192.61874 278.61148 192.46242 278.28711 192.63281 C 278.19814 192.67955 278.08475 192.81321 278.00195 192.96875 C 277.73704 193.46645 277.24937 194.15784 276.9043 194.52734 C 276.12643 195.36028 275.33727 195.73542 274.36914 195.73242 C 273.75571 195.73021 273.43291 195.62712 273.13867 195.33984 C 272.66959 194.88181 272.55298 194.23689 272.64258 192.59766 C 272.78446 190.00142 273.0808 187.35818 273.55469 184.43164 L 273.73242 183.33008 L 275.9375 183.33008 C 277.15064 183.32968 278.33274 183.30946 278.56445 183.28516 C 279.00619 183.23868 279.37008 183.10906 279.5625 182.92969 C 279.82489 182.68511 280.09445 181.88931 280.03125 181.54297 C 279.97446 181.23196 279.78795 180.98043 279.51367 180.84375 L 279.26172 180.71875 L 276.75586 180.71875 C 275.10424 180.71875 274.24805 180.70202 274.24805 180.66992 C 274.24805 180.61623 274.6557 178.65199 274.88086 177.62109 C 274.95932 177.26182 275.07934 176.85099 275.14844 176.70703 C 275.44755 176.08381 275.11975 175.3603 274.46289 175.19727 C 274.1747 175.12567 272.07331 175.08883 271.45117 175.14453 C 270.99708 175.1852 270.87154 175.21339 270.71875 175.31445 C 270.49284 175.46395 270.32812 175.78439 270.32812 176.07617 C 270.32791 176.38183 270.20902 177.02618 269.96484 178.03906 C 269.84837 178.5222 269.70794 179.16486 269.65234 179.4668 C 269.59679 179.76874 269.53994 180.06415 269.52734 180.12305 L 269.50586 180.23047 L 267.96094 180.24414 L 266.41797 180.25781 L 266.29492 180.37305 C 265.99824 180.65197 265.88943 181.39699 265.98633 182.49609 C 266.0887 183.658 266.02875 183.62109 267.83594 183.62109 C 269.07615 183.62109 269.11914 183.62374 269.11914 183.71484 C 269.11914 183.93868 268.95753 185.0079 268.73047 186.28516 C 268.59595 187.0418 268.43379 188.00974 268.37109 188.43555 C 268.24806 189.27114 268.11243 189.70954 267.6582 190.73438 C 266.56452 193.20194 264.92878 194.91607 263.44922 195.14453 C 262.96784 195.21886 262.30489 195.14354 261.93164 194.97266 C 261.6035 194.82244 261.41582 194.54768 261.32422 194.08398 C 261.17758 193.34156 261.28088 190.87098 261.54883 188.75 C 261.8343 186.49033 262.54165 183.19328 262.95508 182.19336 C 264.04685 179.55272 264.61031 177.58266 264.95508 175.20117 C 265.11358 174.10689 265.1239 173.89397 265.0332 173.58203 C 264.92842 173.22164 264.60132 172.88021 264.25391 172.76758 C 263.57683 172.54808 262.20569 172.4784 261.22461 172.61523 z "
       d="m 234.70898,167.84375 c -0.13002,0.01 -9.22074,-0.0493 -3.10742,0.16602 -3.64335,2.49878 -3.18394,1.09156 -3.63476,4.2207 -0.54617,-0.4418 -1.10661,-0.77012 -1.4961,-0.89453 -0.69933,-0.22339 -1.11431,-0.25248 -1.58789,-0.30274 -0.94793,-0.10078 -1.89889,-0.11318 -2.8164,-0.0254 -0.37618,0.036 -0.76904,0.0251 -1.57813,0.31055 -0.80909,0.28546 -1.68885,1.03014 -1.94922,1.31836 -0.11622,0.12863 -0.28454,0.45875 -0.45312,0.7168 -0.20464,-0.73617 -0.5598,-1.57607 -1.45508,-2.28125 -1.40561,-1.10717 -2.36053,-0.97836 -2.91602,-1.01563 -1.14144,-0.0767 -2.1358,0.0386 -3.125,0.23828 -0.9892,0.19972 -1.77131,0.21564 -3.20117,1.29492 -1.35103,1.01976 -1.98888,2.1245 -2.37695,3.60352 -0.37733,1.43793 -0.76492,3.69962 -0.98633,5.36328 -0.65906,4.95277 -0.67565,9.70277 -0.0527,14.68164 a 3.9715003,3.9715003 0 0 0 0,0.002 c 0.0369,0.29454 0.0707,0.58072 0.0937,0.78907 0.0115,0.10417 0.0193,0.19081 0.0234,0.23437 0.004,0.0436 -0.006,0.25242 -0.006,-0.22656 0,1.06642 0.1841,1.39918 0.35157,1.86133 0.16746,0.46215 0.29361,0.85196 0.82422,1.54687 0.84022,1.10041 2.4896,1.93874 3.58593,2.20313 0.90781,0.21891 1.82135,0.36682 2.73242,0.4414 1.45346,0.11896 3.24579,-0.0435 4.51368,-0.70312 0.55552,-0.289 1.43155,-0.92474 1.97265,-1.58203 0.54111,-0.65729 0.83849,-1.20647 1.23047,-1.90821 0.0266,-0.0476 0.0457,-0.0949 0.0723,-0.14257 0.36039,0.58282 0.67869,1.19019 1.16406,1.70117 1.37276,1.44511 3.4797,2.41471 5.43359,2.63086 2.65843,0.29408 5.42531,-0.93278 7.27735,-2.75977 0.52281,-0.51574 0.90313,-1.22442 1.36133,-1.82226 1.58225,2.69876 4.29095,4.61029 7.47265,5.00781 0.82197,0.10275 1.11834,0.0603 1.66797,0.0488 0.54963,-0.0115 1.10319,-0.034 1.6543,-0.0899 2.35852,-0.23912 4.61404,-1.15675 6.47265,-2.6289 0.73987,-0.58602 1.13219,-1.14585 1.59571,-1.69532 0.38942,0.75947 0.87209,1.47093 1.42382,2.0254 0.45331,0.45533 1.44024,1.16332 2.00196,1.43554 3.3926,1.64412 7.21765,1.00719 10.34375,-0.93164 0.90557,0.73039 1.91563,1.33942 3.07031,1.64453 1.61664,0.42712 2.25817,0.36241 3.64844,0.12305 2.48497,-0.42786 4.85724,-1.61386 6.6289,-3.375 0.73819,-0.73378 1.39032,-1.55572 1.92969,-2.43359 0.4918,-0.80039 0.89507,-1.06463 1.1836,-2.63086 l -0.002,0.002 c 0.0402,-0.21778 0.24088,-1.24272 -0.2207,-2.38672 -0.46158,-1.144 -0.95771,-1.43648 -1.09961,-1.57031 -0.93008,-0.87717 -1.70735,-1.13521 -2.54492,-1.32227 -0.71148,-0.1589 -1.56685,-0.25151 -2.78906,0.21289 0.0609,-0.5448 0.10974,-1.08432 0.18554,-1.64843 0.14665,-0.002 0.32794,-0.002 0.46094,-0.004 0.5044,-0.009 0.59211,0.0206 1.29102,-0.0527 a 3.9715003,3.9715003 0 0 0 0.002,0 c 0.98013,-0.10314 1.96804,-0.16896 3.28906,-1.4004 1.20644,-1.12454 1.19425,-1.6431 1.41211,-2.2871 0.21786,-0.64401 0.56287,-1.03437 0.25586,-2.7168 -0.26481,-1.45023 -1.28057,-2.85743 -2.65234,-3.54102 a 3.9715003,3.9715003 0 0 0 -0.006,-0.002 l -0.25196,-0.125 a 3.9715003,3.9715003 0 0 0 -1.76562,-0.41406 h -0.17578 c 0.18666,-2.35582 -1.2326,-4.80033 -3.66602,-5.4043 -1.09069,-0.27098 -0.94399,-0.14214 -1.25781,-0.1582 -0.31382,-0.0161 -0.65574,-0.027 -1.00977,-0.0332 -0.70804,-0.0124 -1.27064,-0.0331 -2.05468,0.0371 -0.27586,0.0247 -0.54133,0.038 -1.01954,0.14844 -0.46134,0.10653 -1.1321,0.41029 -1.49609,0.64063 -0.56234,-1.47759 -1.42443,-2.44393 -3.10351,-2.98829 -1.93864,-0.62848 -3.13766,-0.54082 -4.80274,-0.30859 -0.39794,0.0555 -0.86622,0.0941 -1.60547,0.38867 -0.73925,0.29455 -1.39611,0.83165 -1.66797,1.08594 -0.79843,0.74682 -1.54233,2.1494 -1.72656,3.20313 0.01,-0.0567 -0.11477,0.58258 -0.21094,1.02734 -0.27094,1.25311 -0.51195,2.79934 -0.7832,4.29101 -1.44436,-1.38652 -3.23375,-2.43089 -5.31641,-2.73828 -1.79244,-0.26454 -3.38023,-0.0576 -5.06835,0.375 -1.05643,0.27076 -2.04192,0.70184 -2.99415,1.18555 0.0785,-0.89041 0.29875,-1.88478 0.30469,-2.70508 0.003,-0.46491 0.0122,-0.76415 -0.0215,-1.21289 -0.0336,-0.44874 -0.179,-1.07503 -0.26172,-1.33789 -0.30807,-0.97903 -1.14458,-2.38868 -2.36328,-3.14844 -0.92261,-0.57516 -1.74257,-0.74928 -2.50977,-0.85156 a 3.9715003,3.9715003 0 0 0 -1.74219,-0.40039 z m 31.53516,8.44336 h 0.0605 c -4e-5,-2.6e-4 3e-5,0.002 0,0.002 a 3.9715003,3.9715003 0 0 0 -0.0605,0.002 z m -8.51367,9.00586 c 0.10456,0.18469 -0.0778,-0.78233 0,0 z m 19.38476,1.99805 c -1.0431,0.0223 -0.59973,0.008 -1.17578,0.01 0.42255,-1.4e-4 0.79468,-0.006 1.17578,-0.01 z m -19.83789,3.45117 -0.14648,0.57031 c -0.004,4.9e-4 -0.0449,0.006 -0.0449,0.006 0,0 -0.008,-0.002 -0.008,-0.002 0.0569,-0.19744 0.14721,-0.37397 0.19922,-0.57422 z m -0.31054,1.20312 c -0.18632,0.0328 -0.55297,0.3085 -0.24414,0.38867 0.0359,-0.10525 0.0749,-0.20828 0.10937,-0.31445 0.0464,-0.0224 0.0887,-0.0512 0.13477,-0.0742 z m 7.11523,2.58399 c 4.6e-4,0.0461 0.007,0.0268 0.008,0.0684 0.002,0.0133 -0.008,-0.0683 -0.008,-0.0566 z"
       transform="translate(-138.76306,-76.10968)" />
    <path
       style="fill:#ffffff;fill-opacity:1;stroke-width:0.048387"
       d="m 103.80542,122.46103 c -2.40919,-0.301 -4.43177,-1.98622 -5.16336,-4.30212 -0.24898,-0.78814 -0.27459,-1.08607 -0.2479,-2.88289 0.032,-2.15282 0.1206,-2.80632 0.56413,-4.16003 1.13236,-3.45603 4.0235,-6.15705 7.56092,-7.06368 1.23442,-0.31637 2.58781,-0.43044 3.50359,-0.29528 2.91063,0.42959 5.04299,2.87782 5.04299,5.78998 0,0.33388 0.0151,0.43199 0.0664,0.43199 0.3089,0 1.6205,-0.58266 2.22783,-0.98966 0.79363,-0.53186 1.69363,-1.4431 1.74242,-1.76418 0.38962,-2.56355 0.97768,-5.78536 1.48011,-8.10906 0.10358,-0.47903 0.21282,-1.01112 0.24277,-1.18244 0.0728,-0.41638 0.22808,-0.70716 0.52698,-0.98674 0.31678,-0.29631 0.44765,-0.34828 1.10926,-0.44057 0.98108,-0.13683 2.35173,-0.0685 3.02881,0.151 0.34741,0.11263 0.67494,0.45528 0.77972,0.81567 0.0907,0.31194 0.0805,0.5246 -0.078,1.61888 -0.34477,2.38149 -0.90822,4.3513 -1.99999,6.99194 -0.41343,0.99992 -1.12031,4.29678 -1.40578,6.55645 -0.26795,2.12098 -0.37257,4.59107 -0.22593,5.33349 0.0916,0.4637 0.28003,0.73931 0.60817,0.88953 0.37325,0.17088 1.03595,0.24575 1.51733,0.17142 1.47956,-0.22846 3.11604,-1.94301 4.20972,-4.41057 0.45423,-1.02483 0.59011,-1.4628 0.71314,-2.29839 0.0627,-0.42581 0.22403,-1.39326 0.35855,-2.1499 0.22706,-1.27726 0.3888,-2.34648 0.3888,-2.57032 0,-0.0911 -0.0436,-0.0942 -1.28381,-0.0942 -1.80719,0 -1.74615,0.0371 -1.84852,-1.12481 -0.0969,-1.0991 0.0113,-1.84419 0.30798,-2.12311 l 0.12234,-0.11498 1.54411,-0.014 1.54413,-0.014 0.0228,-0.10694 c 0.0126,-0.0589 0.0682,-0.35399 0.12375,-0.65593 0.0556,-0.30194 0.19632,-0.94428 0.31279,-1.42742 0.24418,-1.01288 0.36381,-1.6583 0.36403,-1.96396 0,-0.29178 0.16381,-0.61106 0.38972,-0.76056 0.15279,-0.10106 0.27795,-0.13034 0.73204,-0.17101 0.62214,-0.0557 2.72373,-0.0192 3.01192,0.0524 0.65686,0.16303 0.98597,0.88629 0.68686,1.50951 -0.0691,0.14396 -0.18981,0.55568 -0.26827,0.91495 -0.22516,1.0309 -0.63275,2.99433 -0.63275,3.04802 0,0.0321 0.85501,0.0488 2.50663,0.0488 h 2.50662 l 0.25213,0.12565 c 0.27428,0.13668 0.45992,0.38771 0.51671,0.69872 0.0632,0.34634 -0.20504,1.14239 -0.46743,1.38697 -0.19242,0.17937 -0.55648,0.30903 -0.99822,0.35551 -0.23171,0.0243 -1.41385,0.0447 -2.62699,0.0451 l -2.2057,6.7e-4 -0.17826,1.1008 c -0.47389,2.92654 -0.7687,5.57061 -0.91058,8.16685 -0.0896,1.63923 0.0272,2.28441 0.49628,2.74244 0.29424,0.28728 0.61537,0.3897 1.2288,0.39191 0.96813,0.003 1.75818,-0.37185 2.53605,-1.20479 0.34507,-0.3695 0.83229,-1.06219 1.0972,-1.55989 0.0828,-0.15554 0.19576,-0.28858 0.28473,-0.33532 0.32437,-0.17039 1.02519,-0.0134 1.36318,0.30536 0.15927,0.15021 0.1716,0.18059 0.14086,0.34717 -0.0383,0.20791 -0.21172,0.54193 -0.65986,1.27127 -0.47864,0.77903 -0.6845,1.03846 -1.3449,1.69492 -1.26212,1.25462 -2.65704,1.96004 -4.50501,2.27822 -0.56281,0.0969 -1.49524,0.0735 -1.95966,-0.0492 -1.64511,-0.43471 -2.87824,-1.74339 -3.18945,-3.38488 -0.0422,-0.2225 -0.0777,-0.49467 -0.0788,-0.60483 -0.003,-0.23723 0.0288,-0.27071 -0.49185,0.52551 -0.4872,0.74507 -1.40465,1.6623 -2.16728,2.16675 -2.22426,1.47127 -4.81626,1.79707 -6.76887,0.8508 -0.43495,-0.21079 -0.55901,-0.30014 -0.92011,-0.66285 -0.62418,-0.62695 -0.94927,-1.25963 -1.17456,-2.28587 -0.26532,-1.20851 -0.0608,-4.26908 0.48582,-7.26642 0.0473,-0.25948 0.0791,-0.47177 0.0708,-0.47177 -0.008,0 -0.1514,0.11032 -0.31787,0.24516 -0.75411,0.61082 -1.60937,1.08097 -2.5487,1.40107 l -0.64926,0.22125 -0.13764,0.52997 c -0.51482,1.98219 -1.29262,3.71706 -2.31384,5.16098 -0.35188,0.49755 -1.262,1.4666 -1.71261,1.82351 -1.28368,1.01676 -2.7841,1.62636 -4.40835,1.79104 -0.72071,0.073 -2.03264,0.10064 -2.42973,0.051 z m 1.89521,-3.39736 c 0.0105,-0.0333 0.0324,-0.14213 0.049,-0.24193 0.028,-0.16829 0.0421,-0.18145 0.19512,-0.18145 0.25728,0 0.75765,-0.20437 1.10199,-0.45008 1.34456,-0.95946 2.55277,-3.46698 3.10462,-6.44336 l 0.10733,-0.57892 -0.372,-0.36462 c -0.74577,-0.73095 -0.94261,-1.4777 -0.99989,-3.79302 l -0.0297,-1.20258 -0.73034,0.0223 c -0.86006,0.0262 -1.14078,0.10508 -1.69637,0.47668 -1.50435,1.00617 -2.59977,3.51884 -3.00382,6.89009 -0.10201,0.85088 -0.14526,2.5954 -0.0779,3.13699 0.18302,1.46999 0.78871,2.43082 1.71475,2.72023 0.26617,0.0832 0.61252,0.0885 0.63714,0.009 z m -32.56224,2.95897 c -0.69383,-0.0568 -1.40722,-0.17294 -2.1244,-0.34588 -0.71195,-0.17169 -1.07034,-0.36927 -1.36154,-0.75064 -0.17771,-0.23274 -0.36084,-0.74 -0.36084,-0.99949 0,-0.0853 -0.0638,-0.66546 -0.1419,-1.28926 -0.58403,-4.6681 -0.56841,-9.02744 0.0489,-13.66643 0.1911,-1.43595 0.65627,-3.97884 0.8926,-4.87945 0.14786,-0.56352 0.51023,-1.12709 0.92695,-1.44163 0.60197,-0.45438 2.42917,-0.82267 3.66853,-0.73941 0.73778,0.0495 0.8813,0.16252 0.92633,0.72906 0.0225,0.28273 -0.006,0.46651 -0.19319,1.25078 -0.73416,3.07435 -1.21455,6.2303 -1.46204,9.60484 -0.18084,2.46583 -0.11891,8.37026 0.0865,8.24333 0.0634,-0.0391 1.90315,-3.74826 2.91279,-5.87236 1.51871,-3.19509 2.61673,-5.62906 4.22387,-9.3629 1.25097,-2.90638 1.33171,-3.07977 1.54308,-3.31371 0.215,-0.238 0.32493,-0.27667 0.95901,-0.33733 0.71279,-0.0682 1.23222,-0.063 2.01759,0.0205 0.74631,0.0792 1.01485,0.1649 1.11259,0.35502 0.0558,0.10856 0.0719,1.27912 0.096,6.97722 0.0304,7.19692 0.0397,7.50874 0.26277,8.89536 0.32001,1.98862 0.93893,2.99993 1.9181,3.13414 0.38454,0.0527 0.60539,-0.0476 1.00791,-0.45796 0.28723,-0.29278 0.42059,-0.48158 0.6395,-0.90528 1.16058,-2.24632 1.9988,-6.28721 2.39323,-11.53723 0.10912,-1.45241 0.1246,-6.3509 0.0245,-7.71774 -0.0712,-0.97078 -0.0443,-1.22004 0.16619,-1.5401 0.21903,-0.33307 0.3719,-0.36891 1.57912,-0.37013 l 1.05242,-0.001 v 0.11123 c 0,0.10796 0.0195,0.11286 0.66533,0.1667 1.35398,0.11291 1.86945,0.43396 2.1553,1.34238 0.0969,0.30792 0.10613,0.43126 0.0996,1.3313 -0.0272,3.75196 -1.15156,9.44365 -2.73153,13.82647 -1.32312,3.6703 -2.78031,6.25863 -4.45177,7.90749 -1.28818,1.27076 -2.59496,1.7993 -4.05052,1.63828 -1.27621,-0.14118 -2.19175,-0.57496 -2.99238,-1.41779 -0.85104,-0.89594 -1.50003,-2.23581 -1.90715,-3.93744 -0.38148,-1.59445 -0.624,-3.93718 -0.62513,-6.03879 -3e-4,-0.52875 -0.0179,-0.85056 -0.0449,-0.82257 -0.0245,0.0253 -0.22071,0.44451 -0.43613,0.93163 -1.29149,2.92023 -2.86942,6.06604 -4.56766,9.10627 -0.72657,1.30072 -0.96398,1.58882 -1.56836,1.90323 -0.59372,0.30888 -1.12957,0.37007 -2.35921,0.26943 z"
       id="path861" />
  </g>
</svg>
